<svg xmlns="http://www.w3.org/2000/svg" style="display: none;">
  <symbol
        id="logo--woolworths"
        xmlns="http://www.w3.org/2000/svg"
        viewBox="0 -0.001 912.854 215.986"
      >
        <path
          fill="#00582D"
          d="M252.756 48.188h8.815v107.939h-8.815zM242.968 117.762c0 24.098-13.153 40.11-32.888 40.11-20.024 0-33.327-15.854-33.327-40.11 0-24.574 13.154-40.27 33.475-40.27 20.022 0 32.74 15.696 32.74 40.27zm-56.621.156c0 18.551 9.846 32.431 23.59 32.431 13.737 0 23.443-13.88 23.443-32.587 0-18.869-9.562-32.752-23.301-32.752-14.324 0-23.732 13.569-23.732 32.908zM429.82 117.762c0 24.098-13.151 40.11-32.891 40.11-20.025 0-33.327-15.854-33.327-40.11 0-24.574 13.158-40.27 33.476-40.27 20.025 0 32.742 15.696 32.742 40.27zm-56.624.156c0 18.551 9.85 32.431 23.591 32.431 13.737 0 23.444-13.88 23.444-32.587 0-18.869-9.562-32.752-23.302-32.752-14.328 0-23.733 13.569-23.733 32.908zM170.159 117.762c0 24.098-13.155 40.11-32.886 40.11-20.027 0-33.329-15.854-33.329-40.11 0-24.574 13.155-40.27 33.472-40.27 20.025 0 32.743 15.696 32.743 40.27zm-56.62.156c0 18.551 9.845 32.431 23.587 32.431 13.74 0 23.445-13.88 23.445-32.587 0-18.869-9.563-32.752-23.298-32.752-14.328 0-23.734 13.569-23.734 32.908zM526.972 79.393v3.649c-.155 3.331 0 6.816-.45 10.146 4.954-9.512 13.818-14.904 24.189-14.904 16.971 0 23.061 12.525 23.955 28.538.308 3.651.459 9.834.459 13.475v35.832h-8.793v-35.832c0-4.437-.158-11.939-.443-15.583-1.057-12.217-7.065-18.87-16.825-18.87-7.977 0-15.333 5.229-19.247 13.475-1.49 3.016-2.098 6.025-2.545 12.529-.156 2.377-.3 7.187-.3 8.449v35.832h-8.745V48.188h8.745v31.205zM622.84 88.379c-5.92-2.033-8.718-2.625-14.617-2.861-8.776-.358-15.05 5.291-15.05 11.792 0 15.853 35.979 14.109 35.979 38.527 0 12.841-10.688 21.716-26.34 21.716-6.596 0-12.153-1.104-18.745-3.806l.629-8.688c6.59 3.643 11.667 4.991 17.525 4.991 9.959 0 17.271-6.602 17.271-14.213 0-18.394-35.128-15.224-35.128-38.37 0-11.887 9.374-19.731 24.002-19.499 5.647.091 8.299.248 15.165 2.626l-.691 7.785zM320.605 79.109s10.706 43.563 12.938 53.766l2.681 12.258s1.667-7.287 2.999-12.246c2.76-10.269 14.981-53.776 14.981-53.776h9.453l-22.302 76.943h-10.384s-11.729-50.828-13.103-57.079c-.69-3.138-1.648-7.918-1.648-7.918s-.956 4.78-1.651 7.918c-1.374 6.251-13.1 57.079-13.1 57.079H291.08L268.782 79.11h9.452s12.224 43.509 14.985 53.776c1.331 4.959 2.995 12.246 2.995 12.246s1.595-7.287 2.68-12.258c2.235-10.202 12.938-53.766 12.938-53.766h8.773zM56.5 67.468s14.389 52.433 16.814 61.487c1.358 5.061 3.485 13.98 3.485 13.98s1.88-8.933 3.14-14.027c2.228-8.982 15.693-61.44 15.693-61.44h9.155l-22.82 88.638H71.962S55.209 91.971 54.405 88.691c-.802-3.279-2.01-9.603-2.01-9.603s-1.206 6.322-2.013 9.603c-.799 3.28-17.554 67.415-17.554 67.415H22.821L0 67.468h9.158s13.464 52.458 15.688 61.44c1.263 5.096 3.142 14.027 3.142 14.027s2.131-8.921 3.487-13.98c2.427-9.056 16.816-61.487 16.816-61.487H56.5zM439.315 156.127V79.244h7.482v17.578s4.171-16.354 27.406-17.557c3.234-.169 7.446-.069 7.446-.069V59.859l8.735-3.407v22.764h17.952v7.795h-17.952v46.735c0 11.027 3.446 14.865 10.97 14.865 4.169 0 7.605-1.546 7.605-1.546l.929 7.598s-4.35 1.424-8.95 1.424c-2.369 0-9.375.336-14.171-4.513-3.207-3.242-5.118-8.497-5.118-18.265 0-8.925.014-46.612.002-46.612-3.042-.022-9.587-.385-14.892 1.001-7.094 1.86-18.697 9.231-18.697 27.624v40.806h-8.747v-.001z"
        />
        <g>
          <linearGradient
            id="a"
            gradientUnits="userSpaceOnUse"
            x1="884.555"
            y1="15.963"
            x2="809.305"
            y2="33.522"
            gradientTransform="matrix(1 0 0 -1 8.4 192.084)"
          >
            <stop offset=".121" stop-color="#009950" />
            <stop offset=".534" stop-color="#6bb453" />
            <stop offset=".843" stop-color="#9cc854" />
            <stop offset="1" stop-color="#b1d355" />
          </linearGradient>
          <path
            fill="url(#a)"
            d="M838.631 182.1c-5.383 0-10.469-.665-15.261-1.887-7.906 10.874-18.105 20.262-29.929 26.714 10.446 5.687 22.167 9.059 34.658 9.059 47.897 0 80.505-49.83 84.366-92.176-1.521 5.604-11.387 58.29-73.834 58.29z"
          />
          <linearGradient
            id="b"
            gradientUnits="userSpaceOnUse"
            x1="856.235"
            y1="178.589"
            x2="856.235"
            y2="8.76"
            gradientTransform="matrix(1 0 0 -1 8.4 192.084)"
          >
            <stop offset="0" stop-color="#06a94e" />
            <stop offset=".149" stop-color="#5ab450" />
            <stop offset=".318" stop-color="#81c052" />
            <stop offset=".479" stop-color="#9bca53" />
            <stop offset=".626" stop-color="#abd155" />
            <stop offset=".747" stop-color="#b1d355" />
          </linearGradient>
          <path
            fill="url(#b)"
            d="M850.548 49.709c-23.04 0-34.131 13.373-34.131 13.373 23.782 2.407 53 19.186 53 53.941 0 33.753-22.117 49.087-40.197 54.212a98.661 98.661 0 0 1-5.85 8.978c4.792 1.222 9.878 1.887 15.261 1.887 62.447 0 72.313-52.686 73.836-58.29a89.38 89.38 0 0 0 .387-8.382c-.001-47.51-36.275-65.719-62.306-65.719z"
          />
          <linearGradient
            id="c"
            gradientUnits="userSpaceOnUse"
            x1="719.807"
            y1="178.589"
            x2="719.807"
            y2="8.76"
            gradientTransform="matrix(1 0 0 -1 8.4 192.084)"
          >
            <stop offset="0" stop-color="#06a94e" />
            <stop offset=".149" stop-color="#5ab450" />
            <stop offset=".318" stop-color="#81c052" />
            <stop offset=".479" stop-color="#9bca53" />
            <stop offset=".626" stop-color="#abd155" />
            <stop offset=".747" stop-color="#b1d355" />
          </linearGradient>
          <path
            fill="url(#c)"
            d="M748.263 182.1c13.257 0 24.843-4.049 34.11-10.538-3.176.951-7.079 1.73-11.01 1.73-17.63 0-53.886-13.053-53.886-56.269 0-34.757 29.219-51.534 53.001-53.941 0 0-11.091-13.373-34.13-13.373-26.033 0-62.308 18.209-62.308 65.719 0 2.755.119 5.54.386 8.382 1.522 5.651 11.198 58.29 73.837 58.29z"
          />
          <linearGradient
            id="d"
            gradientUnits="userSpaceOnUse"
            x1="761.598"
            y1="99.329"
            x2="761.598"
            y2="16.59"
            gradientTransform="matrix(1 0 0 -1 8.4 192.084)"
          >
            <stop offset=".187" stop-color="#009950" />
            <stop offset=".543" stop-color="#74b753" />
            <stop offset=".78" stop-color="#b1d355" />
          </linearGradient>
          <path
            fill="url(#d)"
            d="M771.364 173.292c3.928 0 7.835-.779 11.01-1.73l.006-.001c4.271-2.983 8.042-6.512 11.263-10.368v-.003c-2.2-2.762-12.413-16.581-12.413-35.07 0-17.292 9.266-24.674 12.326-26.644a.03.03 0 0 0-.008-.008c-6.36-4.741-13.53-6.113-17.606-6.113-6.571 0-24.32 4.502-28.508 24.77 0-.007.003-.015.003-.02l-.012.061a58.48 58.48 0 0 0-.403 2.428c-.423 3.38-.666 7.119-.666 11.213 0 16.261 6.92 30.799 12.329 39.709 4.691 1.232 9.083 1.776 12.679 1.776z"
          />
          <linearGradient
            id="e"
            gradientUnits="userSpaceOnUse"
            x1="729.335"
            y1="-15.074"
            x2="791.819"
            y2="220.636"
            gradientTransform="matrix(1 0 0 -1 8.4 192.084)"
          >
            <stop offset=".055" stop-color="#009950" />
            <stop offset=".125" stop-color="#32a451" />
            <stop offset=".25" stop-color="#6fb553" />
            <stop offset=".361" stop-color="#92c454" />
            <stop offset=".456" stop-color="#a8ce55" />
            <stop offset=".522" stop-color="#b1d355" />
          </linearGradient>
          <path
            fill="url(#e)"
            d="M793.778 77.305c-28.926 0-42.674 21.267-46.346 40.818 4.188-20.268 21.937-24.77 28.508-24.77 4.076 0 11.246 1.372 17.606 6.113.004.003.007.003.008.008 6.936 5.163 12.913 13.903 12.913 27.846 0 11.885-4.624 24.047-12.826 33.868v.003c-10.239 12.291-26.038 20.907-45.379 20.907-62.639 0-72.314-52.639-73.835-58.29 3.864 42.346 36.465 92.176 84.371 92.176 46.771 0 82.511-47.214 82.511-86.752.001-27.417-15.558-51.927-47.531-51.927z"
          />
          <linearGradient
            id="f"
            gradientUnits="userSpaceOnUse"
            x1="774.782"
            y1="123.887"
            x2="846.985"
            y2="195.161"
            gradientTransform="matrix(1 0 0 -1 8.4 192.084)"
          >
            <stop offset="0" stop-color="#5cb249" />
            <stop offset=".484" stop-color="#88c14e" />
            <stop offset="1" stop-color="#b1d355" />
          </linearGradient>
          <path
            fill="url(#f)"
            d="M794.646 61.162s-9.984-9.589-10.68-22.662c-.507-9.515 3.356-24.072 18.418-32.146 35.256-18.867 65.897 8.58 62.347 26.362 0 0-26.262-11.938-50.437 2.349-17.786 10.504-19.648 26.097-19.648 26.097z"
          />
        </g>
      </symbol>
      <symbol
        id="logo--lg"
        xmlns="http://www.w3.org/2000/svg"
        viewBox="0 0 176.13199999999998 77.239"
      >
        <path
          d="M38.65 77.239c21.328 0 38.65-17.271 38.65-38.611C77.3 17.287 59.978 0 38.65 0 17.289 0 0 17.287 0 38.628c0 21.34 17.289 38.611 38.65 38.611"
          fill="#a50034"
        />
        <g fill="#fff">
          <path
            d="M37.095 21.676v33.887h10.773v-3.047H40.2v-30.84zM26.308 30.922a4.632 4.632 0 0 0 4.629-4.629c0-2.547-2.066-4.639-4.629-4.639s-4.629 2.092-4.629 4.639 2.066 4.629 4.629 4.629"
          />
          <path
            d="M40.199 6.304a41.776 41.776 0 0 0-1.539-.045c-17.84 0-32.359 14.524-32.359 32.353 0 8.66 3.365 16.777 9.46 22.881 6.12 6.09 14.241 9.455 22.899 9.455 8.625 0 16.744-3.365 22.853-9.455 6.11-6.104 9.491-14.221 9.491-22.881v-1.439H47.898v2.978h20.024c0 .065 0 .381-.014.463C66.89 55.856 54.16 67.928 38.66 67.928c-7.846 0-15.203-3.051-20.74-8.592-5.555-5.518-8.616-12.869-8.616-20.725 0-7.811 3.061-15.2 8.616-20.735 5.537-5.53 12.894-8.581 20.74-8.581.338 0 1.16 0 1.539.02z"
          />
        </g>
        <path
          d="M106.367 13.002H94.753V63.28h35.672v-9.787h-24.058zm49.607 31.118h9.459v8.791c-1.744.664-5.145 1.326-8.381 1.326-10.453 0-13.935-5.309-13.935-16.092 0-10.283 3.316-16.346 13.769-16.346 5.809 0 9.127 1.826 11.861 5.311l7.221-6.639c-4.398-6.3-12.115-8.208-19.33-8.208-16.264 0-24.807 8.876-24.807 25.798 0 16.84 7.715 25.965 24.725 25.965 7.797 0 15.43-1.99 19.576-4.893v-24.39h-20.158z"
          fill="#6b6b6b"
        />
      </symbol>
      <symbol
        id="logo--audi"
        xmlns="http://www.w3.org/2000/svg"
      >
        <path
          d="M56.927 0a11.798 11.798 0 00-7.495 2.671A11.906 11.906 0 0041.9 0a11.719 11.719 0 00-7.494 2.671C32.347 1.006 29.745 0 26.91 0a11.798 11.798 0 00-7.494 2.671C17.358 1.006 14.756 0 11.92 0 5.32 0 0 5.303 0 11.884c0 6.58 5.32 11.884 11.921 11.884 2.835 0 5.475-1.007 7.495-2.671 2.058 1.664 4.66 2.67 7.494 2.67 2.835 0 5.475-1.006 7.495-2.67a11.906 11.906 0 007.533 2.67c2.874 0 5.475-1.006 7.533-2.67 2.058 1.664 4.66 2.67 7.495 2.67 6.601 0 11.921-5.302 11.921-11.883C68.848 5.342 63.528 0 56.927 0zm-7.495 17.226a9.126 9.126 0 01-1.708-5.342c0-1.974.621-3.832 1.708-5.342a9.126 9.126 0 011.709 5.342c0 2.013-.66 3.832-1.709 5.342zm-15.027 0a9.126 9.126 0 01-1.709-5.342c0-1.974.621-3.832 1.709-5.342a9.126 9.126 0 011.708 5.342c0 2.013-.66 3.832-1.708 5.342zm-15.028 0a9.126 9.126 0 01-1.709-5.342c0-1.974.622-3.832 1.709-5.342a9.126 9.126 0 011.708 5.342c0 2.013-.66 3.832-1.708 5.342zM2.602 11.884c0-5.071 4.116-9.213 9.242-9.213a9.22 9.22 0 015.63 1.897c-1.592 2.013-2.524 4.529-2.524 7.316 0 2.748.932 5.303 2.524 7.316-1.553 1.2-3.495 1.897-5.63 1.897-5.087 0-9.242-4.103-9.242-9.213zM21.24 19.2c1.592-2.013 2.524-4.529 2.524-7.316 0-2.749-.932-5.303-2.524-7.316 1.553-1.2 3.495-1.897 5.63-1.897 2.136 0 4.078.697 5.63 1.897-1.591 2.013-2.523 4.529-2.523 7.316 0 2.748.932 5.303 2.524 7.316-1.553 1.2-3.495 1.897-5.63 1.897-2.136 0-4.078-.697-5.631-1.897zm15.028 0c1.592-2.013 2.524-4.529 2.524-7.316 0-2.749-.932-5.303-2.524-7.316 1.553-1.2 3.494-1.897 5.63-1.897a9.22 9.22 0 015.63 1.897c-1.591 2.013-2.523 4.529-2.523 7.316 0 2.748.932 5.303 2.524 7.316-1.554 1.2-3.495 1.897-5.63 1.897a9.22 9.22 0 01-5.631-1.897zm20.658 1.897a9.22 9.22 0 01-5.63-1.897c1.591-2.013 2.523-4.529 2.523-7.316 0-2.749-.932-5.303-2.524-7.316 1.554-1.2 3.495-1.897 5.63-1.897 5.088 0 9.243 4.103 9.243 9.213 0 5.11-4.155 9.213-9.242 9.213z"
          fill="#000"
          fill-rule="evenodd"
        ></path>
      </symbol>
      <symbol
      id="logo--datev"
        xmlns="http://www.w3.org/2000/svg"
        viewBox="0 0 192.756 192.756"
      >
        <g fill-rule="evenodd" clip-rule="evenodd">
          <path fill="#fff" d="M0 0h192.756v192.756H0V0z" />
          <path
            fill="#26a895"
            d="M46.208 176.799h8.112l11.052-30.252 9.33 24.51h-10.73v5.742h20.815l-14.642-37.322h-9.257l-14.68 37.322zM78.686 139.441v6.243h11.807v31.115h8.181V145.65h11.914v-6.209H78.686zM113.422 139.371v37.428h25.732v-6.315h-17.441v-10.193h15.611v-6.281h-15.648v-8.432H138.4v-6.207h-24.978zM140.338 139.586h8.467l10.265 29.857 8.217-23.974h-9.473v-5.883h19.594l-14.031 37.213h-8.828l-14.211-37.213z"
          />
          <path
            fill="#a0c877"
            d="M15.348 15.815h161.054v115.408H15.348V15.815z"
          />
          <path
            d="M15.384 139.477h11.877c.538.539 20.636-2.512 20.456 18.193.466 20.994-21.531 19.236-21.531 19.236H15.384v-37.429zm10.265 6.459h-2.406v24.654h1.974c4.523.07 14.749-.895 14.32-13.205-.145-11.16-9.368-11.592-13.888-11.449z"
            fill="#26a895"
          />
        </g>
      </symbol>
      <symbol
        id="logo--indigo"
        xmlns="http://www.w3.org/2000/svg"
        viewBox="4 0.6 248.09999999999997 70.5"
      >
        <g fill="navy">
          <path
            d="M156.7 3c-9.8 2.5-18.2 9.5-22.5 18.9-2.1 4.4-2.6 7.1-2.7 13.1 0 13.2 7 24.1 19 29.6 7.1 3.3 14.7 4 22.3 2 14.6-3.7 22.9-13.7 24-28.8l.5-6.8H166v8h11c10.4 0 11 .1 11 2 0 3-2.7 9.1-5.3 11.9-6 6.5-19.7 9.1-28.2 5.2-5.1-2.3-11.8-9.8-13.3-14.9-2.8-9.1-.9-18 5.2-24.9 4.9-5.6 10.4-8.2 17.4-8.3 6 0 10.4 1.6 16.7 6.1l4.5 3.3 3.1-3 3-2.9-3.3-2.8C180 4 166.3.6 156.7 3zM4 35v32h8V3H4zM97 25c0 23.8-.5 26.4-5.3 30.9-1.6 1.5-4.3 2.5-7.1 2.8-14.3 1.7-21.9-14.3-11.5-24.3 2.7-2.6 3.7-2.9 9.2-2.9 3.4 0 7.5.4 9 .9 2.8.8 2.8.8 2.5-3-.3-3.6-.6-3.9-4.8-5.2-9.7-2.9-20.8 1.1-25.5 9.2-3.1 5.4-3.4 14.9-.6 21.1 6.5 14.4 29.1 16.6 37.8 3.6 3.8-5.6 4.3-9.6 4.3-32.9V3h-8zM31.3 24.1c-4.8 1.4-9.8 6.9-11.2 12.2-.6 2.5-1.1 10.5-1.1 17.6V67h7.9l.3-15.1.3-15.1 3.3-2.9c3.8-3.4 9.3-3.9 13.1-1.3C48 35.5 49 39.8 49 54v13h7V51.5c0-17.1-.5-19.3-6-23.8-5-4.3-11.9-5.6-18.7-3.6zM216.1 24c-5.1 1.2-11.2 6-13.9 11-1.9 3.7-2.3 5.6-2 11.1.7 12.4 9.1 20.2 21.7 20.3 9 .1 15.4-3.1 19.5-9.7 10.7-17.4-4.8-37.5-25.3-32.7zm16.7 11.3c3.4 3.5 3.7 4.2 3.7 9.7s-.3 6.2-3.7 9.6c-3.1 3.2-4.4 3.8-9 4.1-6.5.5-11.3-1.8-14-6.8-3.6-6.7-1.7-14.8 4.4-18.8 2.7-1.8 4.4-2.1 9.1-1.8 5.1.3 6.2.8 9.5 4zM115 45.5V67h8V24h-8z"
          />
        </g>
      </symbol>
      <symbol
        id="logo--hm"
        xmlns="http://www.w3.org/2000/svg"
        viewBox="0 0 22.071 14.913"
      >
        <g fill="#cf4037">
          <path
            d="M8.702 6.719c.179-.139.399-.179.598-.259.18-.1.24-.3.18-.499-.02-.08-.06-.14-.14-.16-.299-.08-.559.08-.858.04-.06-.02-.12-.06-.12-.12.04-.219.1-.439.18-.659.459-1.117.998-2.175 1.477-3.272.1-.279.3-.559.2-.858-.08-.28-.459-.2-.678-.12-.261.12-.48.279-.72.418-.14.08-.319.04-.459.12-.419.3-.579.759-.778 1.178-.239.459-.399.918-.599 1.377-.339.799-.738 1.557-1.097 2.355l-1.94.438s1.38-3.232 1.959-4.889c.02-.08 0-.2-.06-.259-.22-.18-.519-.08-.758 0-.439 1.018-.862 2.023-1.317 3.054-.299.678-.474 1.002-.733 1.701-.04.1-.225.674-.225.674-1.12.412-1.69.562-2.575.838-.059.259-.199.479-.239.739.219.02.479 0 .658.08.14.06.06.299.16.419.22.18.499.24.679.479.1.12.12.279.12.439-.02.439-.239.838-.379 1.277a42.17 42.17 0 0 1-.579 1.696c-.06.16.04.339.08.499.06.1.18.159.299.08.1-.08.16-.2.22-.299.2-.399.339-.798.499-1.197.339-.918.619-1.836.958-2.754.678-.14 1.337-.339 2.036-.339.04 0 .02.1.02.16-.339 1.397-.818 2.615-1.137 3.992-.04.12-.08.279-.02.339.379.379.698.758.998 1.217.02.02.06.04.1.04.14.02.299.02.419.02.16-.02.18-.26.24-.399.539-1.257.858-2.535 1.257-3.832.14-.419.279-.818.399-1.257.1-.399.2-.778.359-1.157.06-.12.16-.2.259-.28.338-.382.637-.76 1.057-1.06zM21.894.272c-.24-.359-.759-.279-1.058-.06-.798.599-.958 1.557-1.337 2.395-.1.2-.22.379-.299.559-.938 1.956-1.677 3.912-2.595 5.868-.206.411-.349.848-.519 1.337-.02.02-.04.02-.06.04-.06-.12-.24-.2-.22-.339.1-1.696.339-3.333.559-5.05.06-.399.12-.758.2-1.157.08-.479.2-.878.299-1.357.08-.339.1-.658.12-.998 0-.339.02-.719-.12-1.038-.1-.24-.299-.539-.619-.459-.12.04-.219.14-.339.18-.339.08-.798-.02-.958.339-1.237 2.954-2.192 5.938-3.073 9.021-.12.419-.279.798-.339 1.237-.06.399-.16.758-.24 1.158-.08.459-.259.878-.299 1.337-.04.239-.04.459-.021.698.075.22.504-.03.639-.219.06-.439.16-.858.26-1.317.18-.938.459-1.796.738-2.694a46.64 46.64 0 0 1 1.437-3.952c.04-.12.06-.28.2-.379 0 .878-.16 1.736-.18 2.615-.02 1.337-.08 2.654-.08 3.992 0 .14.14.219.24.319.399.319.785.605 1.011 1.064.044.089.187-.067.266-.146.2-.22.359-.479.459-.739.219-.519.419-1.018.639-1.537.738-1.716 1.477-3.413 2.335-5.069.02.02.04.04.04.06-.259 2.595-.758 5.09-.898 7.664 0 .14.16.24.219.359.14.339.299.679.619.858.24.12.559.02.639-.22.04-.18.04-.379.06-.579.04-.2.1-.399.12-.599.08-.519.18-.998.279-1.537.14-.838.279-1.597.439-2.435.519-2.754 1.038-5.229 1.537-7.983.079-.418.159-.877-.1-1.237zM10.338 10.122c-.275-.092-.536.248-.698.429-.1-.18-.18-.459-.04-.599.281-.281.391-.498.26-.918-.12-.419-.659-.519-1.038-.379-.273.095-.381.467-.355.803.01.138.042.27.095.375.04.08.08.219.14.299-.257.07-.671.567-.923 1.085-.129.266-.215.538-.215.761 0 .419.589.698.938.588.235-.074.399-.239.619-.359.2.159.339.379.579.539.021 0 .06 0 .06-.02.08-.399-.1-.798.08-1.138.14-.239.359-.399.519-.639.167-.251.26-.744-.021-.827zm-1.357 1.367c-.02.16-.16.22-.319.259-.08.02-.16-.02-.22-.1a.32.32 0 0 1-.035-.254.69.69 0 0 1 .095-.205c.06-.1.202-.167.319-.12.2.081.2.261.16.42zm.279-1.856c-.098-.025-.16-.128-.197-.234a.917.917 0 0 1-.042-.185c-.012-.101.08-.188.18-.18.115.01.279.08.259.24-.02.14-.04.379-.2.359z"
          />
        </g>
      </symbol>
</svg>